<svg width="23" height="23" viewBox="0 0 23 23" fill="none" xmlns="http://www.w3.org/2000/svg">
<g id="blog blogger blogspot post web">
<path id="Vector" d="M19.4945 7.96154H17.7993V4.42308C17.7993 3.84223 17.6897 3.26707 17.4767 2.73044C17.2637 2.19381 16.9516 1.70621 16.558 1.29549C16.1645 0.884769 15.6973 0.558967 15.1831 0.336687C14.669 0.114406 14.1179 0 13.5614 0H4.23792C3.11396 0 2.03602 0.466001 1.24126 1.29549C0.446494 2.12498 0 3.25 0 4.42308V15.0385C0 15.2731 0.0892988 15.4981 0.248252 15.664C0.407205 15.8299 0.622791 15.9231 0.847585 15.9231C1.07238 15.9231 1.28796 15.8299 1.44692 15.664C1.60587 15.4981 1.69517 15.2731 1.69517 15.0385V4.42308C1.69517 3.71923 1.96307 3.04422 2.43993 2.54652C2.91678 2.04883 3.56354 1.76923 4.23792 1.76923H13.5614C14.2357 1.76923 14.8825 2.04883 15.3594 2.54652C15.8362 3.04422 16.1041 3.71923 16.1041 4.42308V8.84615C16.1041 9.08077 16.1934 9.30577 16.3524 9.47167C16.5113 9.63757 16.7269 9.73077 16.9517 9.73077H19.4945C19.7192 9.73077 19.9348 9.82397 20.0938 9.98987C20.2527 10.1558 20.342 10.3808 20.342 10.6154V18.5769C20.342 19.2808 20.0741 19.9558 19.5973 20.4535C19.1204 20.9512 18.4737 21.2308 17.7993 21.2308H4.23792C3.56354 21.2308 2.91678 20.9512 2.43993 20.4535C1.96307 19.9558 1.69517 19.2808 1.69517 18.5769C1.69517 18.3423 1.60587 18.1173 1.44692 17.9514C1.28796 17.7855 1.07238 17.6923 0.847585 17.6923C0.622791 17.6923 0.407205 17.7855 0.248252 17.9514C0.0892988 18.1173 0 18.3423 0 18.5769C0 19.75 0.446494 20.875 1.24126 21.7045C2.03602 22.534 3.11396 23 4.23792 23H17.7993C18.9233 23 20.0012 22.534 20.7959 21.7045C21.5907 20.875 22.0372 19.75 22.0372 18.5769V10.6154C22.0372 9.91154 21.7693 9.23652 21.2925 8.73883C20.8156 8.24114 20.1688 7.96154 19.4945 7.96154Z" fill="black"/>
<path id="Vector_2" d="M7.20446 9.73069H10.5948C11.1568 9.73069 11.6957 9.49769 12.0931 9.08295C12.4905 8.66821 12.7138 8.10569 12.7138 7.51916C12.7138 6.93262 12.4905 6.37011 12.0931 5.95536C11.6957 5.54062 11.1568 5.30762 10.5948 5.30762H7.20446C6.64247 5.30762 6.10351 5.54062 5.70612 5.95536C5.30874 6.37011 5.08549 6.93262 5.08549 7.51916C5.08549 8.10569 5.30874 8.66821 5.70612 9.08295C6.10351 9.49769 6.64247 9.73069 7.20446 9.73069ZM7.20446 7.07685H10.5948C10.7072 7.07685 10.815 7.12345 10.8945 7.2064C10.9739 7.28935 11.0186 7.40185 11.0186 7.51916C11.0186 7.63646 10.9739 7.74897 10.8945 7.83191C10.815 7.91486 10.7072 7.96146 10.5948 7.96146H7.20446C7.09206 7.96146 6.98427 7.91486 6.90479 7.83191C6.82531 7.74897 6.78066 7.63646 6.78066 7.51916C6.78066 7.40185 6.82531 7.28935 6.90479 7.2064C6.98427 7.12345 7.09206 7.07685 7.20446 7.07685ZM7.20446 17.6922H14.8327C15.3947 17.6922 15.9337 17.4592 16.3311 17.0445C16.7284 16.6297 16.9517 16.0672 16.9517 15.4807C16.9517 14.8942 16.7284 14.3316 16.3311 13.9169C15.9337 13.5022 15.3947 13.2692 14.8327 13.2692H7.20446C6.64247 13.2692 6.10351 13.5022 5.70612 13.9169C5.30874 14.3316 5.08549 14.8942 5.08549 15.4807C5.08549 16.0672 5.30874 16.6297 5.70612 17.0445C6.10351 17.4592 6.64247 17.6922 7.20446 17.6922ZM7.20446 15.0384H14.8327C14.9451 15.0384 15.0529 15.085 15.1324 15.1679C15.2119 15.2509 15.2565 15.3634 15.2565 15.4807C15.2565 15.598 15.2119 15.7105 15.1324 15.7935C15.0529 15.8764 14.9451 15.923 14.8327 15.923H7.20446C7.09206 15.923 6.98427 15.8764 6.90479 15.7935C6.82531 15.7105 6.78066 15.598 6.78066 15.4807C6.78066 15.3634 6.82531 15.2509 6.90479 15.1679C6.98427 15.085 7.09206 15.0384 7.20446 15.0384Z" fill="black"/>
</g>
</svg>
