<svg width="23" height="22" viewBox="0 0 23 22" fill="none" xmlns="http://www.w3.org/2000/svg">
<path id="Vector" d="M21.5939 8.79312H20.4934C20.1969 8.79312 19.851 8.53526 19.7342 8.23012C19.6309 7.94647 19.5051 7.66712 19.3658 7.39207C19.2176 7.10412 19.2715 6.68724 19.4826 6.48525L20.2688 5.73315C20.8168 5.20883 20.8168 4.35358 20.2688 3.82926L18.9975 2.61301C18.7324 2.35945 18.3775 2.21762 18.0002 2.21762C17.6229 2.21762 17.268 2.35515 17.0029 2.61301L16.2213 3.36511C16.0955 3.48545 15.8844 3.55851 15.6598 3.55851C15.5205 3.55851 15.3857 3.53272 15.2734 3.47685C14.9904 3.34362 14.6939 3.22758 14.3975 3.12444C14.0785 3.017 13.809 2.68177 13.809 2.39812V1.34518C13.809 0.605978 13.1756 0 12.3984 0H10.6016C9.82441 0 9.19551 0.605978 9.19551 1.34518V2.39812C9.19551 2.68177 8.92598 3.017 8.60703 3.12444C8.31055 3.22329 8.01406 3.34362 7.73105 3.47255C7.61875 3.52413 7.48398 3.55421 7.34473 3.55421C7.12012 3.55421 6.90898 3.48115 6.7832 3.36081L6.00156 2.61301C5.73652 2.35945 5.38164 2.21762 5.0043 2.21762C4.62695 2.21762 4.27207 2.35945 4.00703 2.61301L2.73125 3.83356C2.46621 4.08713 2.31797 4.42665 2.31797 4.78765C2.31797 5.14866 2.46621 5.48388 2.73125 5.73745L3.51738 6.48955C3.72852 6.69154 3.78242 7.10842 3.63867 7.39637C3.49941 7.67142 3.37813 7.95077 3.27031 8.23442C3.15801 8.53956 2.80762 8.79742 2.51113 8.79742H1.41055C0.633398 8.79312 0 9.3991 0 10.1426V11.8617C0 12.6052 0.633398 13.2069 1.40605 13.2069H2.50664C2.80312 13.2069 3.15352 13.4647 3.26582 13.7699C3.36914 14.0535 3.49492 14.3329 3.63418 14.6079C3.78242 14.8959 3.72402 15.3128 3.51289 15.5147L2.72676 16.2668C2.17871 16.7912 2.17871 17.6464 2.72676 18.1707L4.00254 19.3913C4.26758 19.6449 4.62246 19.7867 4.9998 19.7867C5.37715 19.7867 5.72754 19.6449 5.99707 19.3913L6.7832 18.6392C6.90898 18.5189 7.12012 18.4458 7.34473 18.4458C7.48398 18.4458 7.61875 18.4716 7.73105 18.5274C8.01406 18.6607 8.31055 18.7767 8.60703 18.8756C8.92598 18.983 9.19551 19.3182 9.19551 19.6019V20.6548C9.19551 21.3983 9.82891 22 10.6016 22H12.3984C13.1756 22 13.809 21.394 13.809 20.6548V19.6019C13.809 19.3182 14.0785 18.983 14.3975 18.8756C14.6939 18.7767 14.9904 18.6564 15.2734 18.5274C15.3813 18.4759 15.5205 18.4458 15.6598 18.4458C15.8844 18.4458 16.0955 18.5189 16.2213 18.6392L17.0029 19.3913C17.268 19.6449 17.6229 19.7867 18.0002 19.7867C18.3775 19.7867 18.7279 19.6449 18.9975 19.3913L20.2688 18.1707C20.8168 17.6464 20.8168 16.7912 20.2688 16.2668L19.4871 15.519C19.276 15.3171 19.2221 14.9002 19.3703 14.6122C19.5096 14.3415 19.6309 14.0578 19.7342 13.7742C19.8465 13.469 20.1969 13.2112 20.4934 13.2112H21.5939C22.3711 13.2112 23 12.6052 23 11.866V10.1426C23 9.3991 22.3666 8.79312 21.5939 8.79312ZM11.5 14.9517C9.22246 14.9517 7.37168 13.1811 7.37168 11.0021C7.37168 8.82751 9.22246 7.05255 11.5 7.05255C13.7775 7.05255 15.6283 8.82321 15.6283 11.0021C15.6283 13.1768 13.7775 14.9517 11.5 14.9517Z" fill="#231F20"/>
</svg>
