<?xml version="1.0" standalone="no"?>
<!DOCTYPE svg PUBLIC "-//W3C//DTD SVG 20010904//EN"
 "http://www.w3.org/TR/2001/REC-SVG-20010904/DTD/svg10.dtd">
<svg version="1.0" xmlns="http://www.w3.org/2000/svg"
 width="200.000000pt" height="200.000000pt" viewBox="0 0 200.000000 200.000000"
 preserveAspectRatio="xMidYMid meet">

<g transform="translate(0.000000,200.000000) scale(0.100000,-0.100000)"
fill="#000000" stroke="none">
<path d="M205 1991 c-73 -13 -143 -66 -178 -136 -20 -40 -31 -158 -22 -231 5
-46 13 -63 37 -86 38 -35 84 -44 131 -24 53 22 77 67 77 145 0 49 4 67 18 77
14 11 154 13 734 14 638 0 718 -2 732 -16 14 -14 16 -94 16 -734 0 -640 -2
-720 -16 -734 -14 -14 -94 -16 -734 -16 -640 0 -720 2 -734 16 -11 11 -16 34
-16 77 0 76 -25 122 -77 143 -47 20 -93 11 -131 -24 -35 -33 -48 -103 -39
-213 9 -110 57 -181 152 -225 l50 -24 785 0 c543 0 797 4 825 11 70 20 121 63
155 132 l31 63 -3 805 -3 804 -29 52 c-30 55 -80 96 -143 119 -31 11 -182 13
-808 12 -424 0 -788 -4 -810 -7z"/>
<path d="M455 1490 c-28 -12 -445 -433 -446 -451 0 -7 -2 -25 -4 -39 -1 -14 3
-36 11 -50 12 -25 149 -167 335 -348 107 -105 138 -118 203 -87 58 28 68 59
73 220 l3 140 28 1 c15 0 192 1 394 2 l367 2 35 31 c59 51 58 125 -1 181 l-25
23 -400 5 -401 5 -2 140 c-2 159 -12 192 -69 219 -37 17 -70 20 -101 6z"/>
</g>
</svg>
