<svg width="22" height="23" viewBox="0 0 22 23" fill="none" xmlns="http://www.w3.org/2000/svg">
<path id="Vector" d="M15.205 12.7437C14.1758 14.3672 13.0605 15.9293 11.8643 17.4224C11.7331 17.5804 11.5643 17.6994 11.3751 17.7674V22.8783L15.9747 21.1615L15.205 12.7437ZM10.1276 17.4184C8.92998 15.9278 7.8146 14.367 6.78684 12.7437L6.02845 21.1615L10.6167 22.8783V17.7674C10.4265 17.6995 10.2574 17.5789 10.1276 17.4184ZM16.7369 21.2011L21.4845 22.9735C21.5478 22.999 21.6166 23.0063 21.6836 22.9945C21.7506 22.9828 21.8133 22.9524 21.8653 22.9066C21.9172 22.8608 21.9564 22.8013 21.9788 22.7342C22.0012 22.6672 22.006 22.5951 21.9926 22.5254L20.4758 14.1988C20.4636 14.1347 20.4365 14.0747 20.3968 14.0242C20.3571 13.9737 20.3061 13.9343 20.2483 13.9094L15.9027 12.0181L16.7369 21.2011ZM0.507362 22.9735L5.25489 21.2011L6.08912 12.0181L1.75112 13.9094C1.69332 13.9343 1.6423 13.9737 1.60261 14.0242C1.56291 14.0747 1.53577 14.1347 1.52361 14.1988L0.00682348 22.5254C-0.00581489 22.5941 -0.000836064 22.6651 0.0212544 22.7312C0.0433448 22.7972 0.08176 22.856 0.132598 22.9015C0.183436 22.947 0.244887 22.9777 0.310708 22.9903C0.37653 23.0029 0.444378 22.9971 0.507362 22.9735ZM11.2841 16.9109C11.523 16.6175 17.063 9.73419 17.063 6.34407C17.063 4.66152 16.4238 3.04788 15.286 1.85814C14.1482 0.668392 12.605 0 10.9959 0C9.38681 0 7.84361 0.668392 6.7058 1.85814C5.56799 3.04788 4.92878 4.66152 4.92878 6.34407C4.92878 9.73419 10.4688 16.6175 10.7077 16.9109C10.7433 16.9545 10.7875 16.9894 10.8373 17.0134C10.887 17.0373 10.9411 17.0497 10.9959 17.0497C11.0507 17.0497 11.1048 17.0373 11.1546 17.0134C11.2043 16.9894 11.2485 16.9545 11.2841 16.9109ZM8.34154 6.34407C8.34154 5.79513 8.49722 5.25851 8.78888 4.80207C9.08055 4.34564 9.4951 3.98989 9.98013 3.77982C10.4651 3.56974 10.9989 3.51478 11.5138 3.62187C12.0286 3.72897 12.5016 3.99331 12.8728 4.38148C13.2441 4.76964 13.4969 5.26419 13.5993 5.80259C13.7017 6.341 13.6491 6.89906 13.4482 7.40622C13.2473 7.91339 12.9071 8.34687 12.4706 8.65185C12.0341 8.95683 11.5209 9.11961 10.9959 9.11961C10.2919 9.11961 9.61678 8.82719 9.11899 8.30667C8.6212 7.78616 8.34154 7.08019 8.34154 6.34407Z" fill="black"/>
</svg>
