<svg width="22" height="21" viewBox="0 0 22 21" fill="none" xmlns="http://www.w3.org/2000/svg">
<path id="Vector" fill-rule="evenodd" clip-rule="evenodd" d="M5.13694 0.5C3.93099 0.5 2.93437 1.54673 2.93437 2.8115V3.5775H2.204C0.998045 3.5775 0 4.62273 0 5.8875V18.1885C0 19.4533 0.998045 20.5 2.204 20.5H19.8002C21.0062 20.5 21.9971 19.4533 21.9971 18.1885V10.503C22.0062 10.3966 21.9941 10.2894 21.9615 10.1883C21.9289 10.0871 21.8766 9.99412 21.8079 9.9153C21.7392 9.83648 21.6556 9.77353 21.5624 9.73047C21.4692 9.6874 21.3685 9.66516 21.2667 9.66516C21.1649 9.66516 21.0642 9.6874 20.971 9.73047C20.8778 9.77353 20.7942 9.83648 20.7255 9.9153C20.6568 9.99412 20.6045 10.0871 20.5719 10.1883C20.5393 10.2894 20.5272 10.3966 20.5363 10.503V18.1885C20.5363 18.6278 20.2191 18.9605 19.8002 18.9605H2.204C1.78511 18.9605 1.46647 18.6278 1.46647 18.1885V5.8875C1.46647 5.44816 1.78511 5.1155 2.204 5.1155H19.8002C20.2191 5.1155 20.5363 5.44816 20.5363 5.8875V7.4255C20.5272 7.53187 20.5393 7.63906 20.5719 7.74024C20.6045 7.84143 20.6568 7.93439 20.7255 8.01321C20.7942 8.09203 20.8778 8.15497 20.971 8.19804C21.0642 8.24111 21.1649 8.26335 21.2667 8.26335C21.3685 8.26335 21.4692 8.24111 21.5624 8.19804C21.6556 8.15497 21.7392 8.09203 21.8079 8.01321C21.8766 7.93439 21.9289 7.84143 21.9615 7.74024C21.9941 7.63906 22.0062 7.53187 21.9971 7.4255V5.8875C21.9971 4.62273 21.0062 3.5775 19.8002 3.5775H19.0698V2.8115C19.0698 1.54673 18.0718 0.5 16.8658 0.5H5.13694ZM5.13694 2.038H16.8658C17.2847 2.038 17.6019 2.37219 17.6019 2.8115V3.5775H4.40084V2.8115C4.40084 2.37219 4.71805 2.038 5.13694 2.038ZM10.9885 6.64299C10.5834 6.65171 10.2606 7.00064 10.2682 7.4255V14.8001L8.58544 13.0338C8.50916 12.9506 8.416 12.8865 8.31287 12.8462C8.20974 12.8059 8.09928 12.7904 7.98969 12.801C7.85058 12.8155 7.71832 12.8714 7.6085 12.9621C7.49867 13.0528 7.41585 13.1745 7.3698 13.3129C7.32375 13.4514 7.31638 13.6007 7.34856 13.7434C7.38075 13.8861 7.45115 14.0161 7.55147 14.1182L10.4844 17.1957C10.6218 17.3389 10.8077 17.4194 11.0014 17.4194C11.1951 17.4194 11.381 17.3389 11.5184 17.1957L14.4528 14.1182C14.5295 14.0493 14.5918 13.9644 14.6358 13.869C14.6798 13.7736 14.7046 13.6697 14.7085 13.5638C14.7124 13.4578 14.6953 13.3522 14.6585 13.2536C14.6216 13.1549 14.5657 13.0652 14.4942 12.9903C14.4228 12.9154 14.3373 12.8567 14.2432 12.8181C14.1491 12.7794 14.0484 12.7615 13.9474 12.7656C13.8465 12.7697 13.7474 12.7956 13.6564 12.8418C13.5654 12.8879 13.4845 12.9533 13.4188 13.0338L11.7346 14.7956V7.4255C11.7424 6.98951 11.4042 6.63479 10.9885 6.64299Z" fill="black"/>
</svg>
