<svg width="35" height="34" viewBox="0 0 35 34" fill="none" xmlns="http://www.w3.org/2000/svg">
<g id="mdi:instagram" filter="url(#filter0_d_84_668)">
<rect x="4" width="27" height="26" rx="10" fill="white"/>
<path id="Vector" d="M12.775 2.16675H22.225C25.825 2.16675 28.75 4.98341 28.75 8.45008V17.5501C28.75 19.2165 28.0625 20.8147 26.8389 21.9931C25.6152 23.1714 23.9555 23.8334 22.225 23.8334H12.775C9.175 23.8334 6.25 21.0167 6.25 17.5501V8.45008C6.25 6.78364 6.93745 5.18545 8.16113 4.00709C9.3848 2.82874 11.0445 2.16675 12.775 2.16675ZM12.55 4.33341C11.4759 4.33341 10.4457 4.74431 9.68622 5.4757C8.9267 6.20709 8.5 7.19907 8.5 8.23341V17.7667C8.5 19.9226 10.3112 21.6667 12.55 21.6667H22.45C23.5241 21.6667 24.5543 21.2559 25.3138 20.5245C26.0733 19.7931 26.5 18.8011 26.5 17.7667V8.23341C26.5 6.07758 24.6887 4.33341 22.45 4.33341H12.55ZM23.4062 5.95841C23.7792 5.95841 24.1369 6.10109 24.4006 6.35504C24.6643 6.609 24.8125 6.95343 24.8125 7.31258C24.8125 7.67173 24.6643 8.01617 24.4006 8.27012C24.1369 8.52408 23.7792 8.66675 23.4062 8.66675C23.0333 8.66675 22.6756 8.52408 22.4119 8.27012C22.1482 8.01617 22 7.67173 22 7.31258C22 6.95343 22.1482 6.609 22.4119 6.35504C22.6756 6.10109 23.0333 5.95841 23.4062 5.95841ZM17.5 7.58341C18.9918 7.58341 20.4226 8.1541 21.4775 9.16992C22.5324 10.1857 23.125 11.5635 23.125 13.0001C23.125 14.4367 22.5324 15.8144 21.4775 16.8302C20.4226 17.8461 18.9918 18.4167 17.5 18.4167C16.0082 18.4167 14.5774 17.8461 13.5225 16.8302C12.4676 15.8144 11.875 14.4367 11.875 13.0001C11.875 11.5635 12.4676 10.1857 13.5225 9.16992C14.5774 8.1541 16.0082 7.58341 17.5 7.58341ZM17.5 9.75008C16.6049 9.75008 15.7464 10.0925 15.1135 10.702C14.4806 11.3115 14.125 12.1381 14.125 13.0001C14.125 13.862 14.4806 14.6887 15.1135 15.2982C15.7464 15.9077 16.6049 16.2501 17.5 16.2501C18.3951 16.2501 19.2536 15.9077 19.8865 15.2982C20.5194 14.6887 20.875 13.862 20.875 13.0001C20.875 12.1381 20.5194 11.3115 19.8865 10.702C19.2536 10.0925 18.3951 9.75008 17.5 9.75008Z" fill="#EE6603"/>
</g>
<defs>
<filter id="filter0_d_84_668" x="0" y="0" width="35" height="34" filterUnits="userSpaceOnUse" color-interpolation-filters="sRGB">
<feFlood flood-opacity="0" result="BackgroundImageFix"/>
<feColorMatrix in="SourceAlpha" type="matrix" values="0 0 0 0 0 0 0 0 0 0 0 0 0 0 0 0 0 0 127 0" result="hardAlpha"/>
<feOffset dy="4"/>
<feGaussianBlur stdDeviation="2"/>
<feComposite in2="hardAlpha" operator="out"/>
<feColorMatrix type="matrix" values="0 0 0 0 0 0 0 0 0 0 0 0 0 0 0 0 0 0 0.25 0"/>
<feBlend mode="normal" in2="BackgroundImageFix" result="effect1_dropShadow_84_668"/>
<feBlend mode="normal" in="SourceGraphic" in2="effect1_dropShadow_84_668" result="shape"/>
</filter>
</defs>
</svg>
