<svg width="22" height="23" viewBox="0 0 22 23" fill="none" xmlns="http://www.w3.org/2000/svg">
<path id="Layer_1" d="M11 0C4.95 0 0 5.175 0 11.5C0 17.825 4.95 23 11 23C17.05 23 22 17.825 22 11.5C22 5.175 17.05 0 11 0ZM11 4.47222C12.3444 4.47222 13.4444 5.62222 13.4444 7.02778C13.4444 8.43333 12.3444 9.58333 11 9.58333C9.65556 9.58333 8.55556 8.43333 8.55556 7.02778C8.55556 5.62222 9.65556 4.47222 11 4.47222ZM4.88889 17.8889C4.88889 14.375 7.63889 11.5 11 11.5C14.3611 11.5 17.1111 14.375 17.1111 17.8889H4.88889Z" fill="black"/>
</svg>
